Coordinates
version=1
nRows=17
nColumns=36
inDegrees=yes

Units are S.I. units (second, meters, Newtons, ...)
If the header above contains a line with 'inDegrees', this indicates whether rotational values are in degrees (yes) or radians (no).

endheader
time	pelvis_tilt	pelvis_list	pelvis_rotation	pelvis_tx	pelvis_ty	pelvis_tz	hip_flexion_r	hip_adduction_r	hip_rotation_r	knee_angle_r	knee_angle_r_beta	ankle_angle_r	subtalar_angle_r	mtp_angle_r	hip_flexion_l	hip_adduction_l	hip_rotation_l	knee_angle_l	knee_angle_l_beta	ankle_angle_l	subtalar_angle_l	mtp_angle_l	lumbar_extension	lumbar_bending	lumbar_rotation	arm_flex_r	arm_add_r	arm_rot_r	elbow_flex_r	pro_sup_r	arm_flex_l	arm_add_l	arm_rot_l	elbow_flex_l	pro_sup_l
     11.44000000	    -28.07281630	     -0.24134960	     -2.08478897	     -0.26470559	      0.79466173	     -0.61686453	     67.31283863	     -2.10931415	      2.16957762	     58.51537748	      1.02128600	     17.22040868	    -16.24063016	     -7.49999987	     67.36417545	     -3.81766674	      4.81580922	     60.00512134	      1.04728694	     19.10344852	    -11.47915373	     -7.49999987	    -18.03734097	      2.32665352	     -2.17385458	      1.82541696	    -14.37560679	     11.70334210	    126.82159543	    102.00419908	      3.00775077	    -14.46759090	     11.01297718	    126.41661864	     97.35079774
     11.45000000	    -28.70272560	     -0.18985695	     -1.93018255	     -0.26869889	      0.78891160	     -0.61700653	     68.91448910	     -2.30285302	      2.15733882	     59.67925394	      1.04159948	     17.89234142	    -15.69319781	     -7.49999987	     68.95064808	     -3.68219034	      4.89674612	     61.04895755	      1.06550531	     19.56879717	    -10.92067936	     -7.49999987	    -18.00145170	      2.29835862	     -2.11539444	      2.49984194	    -14.42909246	     11.95809129	    126.79046117	    102.11281135	      4.19879892	    -14.65066777	     11.77671381	    126.20734231	     97.49345592
     11.46000000	    -29.07538446	     -0.11896955	     -1.77173455	     -0.27252693	      0.78359315	     -0.61712477	     70.22209227	     -2.46664422	      2.23959464	     60.82241245	      1.06155136	     18.19084488	    -15.70549046	     -7.49999987	     70.23189299	     -3.57186003	      4.83490309	     62.03542810	      1.08272247	     19.77561735	    -10.82543255	     -7.49999987	    -18.26891082	      2.24585227	     -2.23400469	      3.28665687	    -14.46816442	     12.28429113	    126.75741003	    102.15767104	      5.34283316	    -14.82041261	     12.30029248	    126.16747536	     97.57705662
     11.47000000	    -29.30024606	     -0.08656834	     -1.65100744	     -0.27625327	      0.77859373	     -0.61717279	     71.34735996	     -2.59013336	      2.27847783	     61.91978161	      1.08070406	     18.35745032	    -15.76171542	     -7.49999987	     71.33223356	     -3.52782212	      4.76494679	     63.00932479	      1.09972018	     19.89914511	    -10.80356502	     -7.49999987	    -18.72229224	      2.24714943	     -2.27962389	      4.11099581	    -14.40684994	     12.44952746	    126.66877953	    102.17195375	      6.45396242	    -14.85788988	     12.53700630	    126.11142286	     97.61108087
     11.48000000	    -29.88785268	     -0.03206343	     -1.52730213	     -0.28013736	      0.77301795	     -0.61724830	     72.87704524	     -2.73184862	      2.31581658	     63.01734041	      1.09986008	     18.63836294	    -15.61672679	     -7.49999987	     72.80745071	     -3.45256594	      4.73924813	     63.91594710	      1.11554372	     20.13476275	    -10.56078494	     -7.49999987	    -18.67894260	      2.20904214	     -2.28776182	      4.77153895	    -14.45503934	     12.76699474	    126.63670642	    102.21830306	      7.53256820	    -14.92908643	     13.12181759	    125.99382604	     97.70167528
     11.49000000	    -30.25103962	     -0.06229664	     -1.45394561	     -0.28386056	      0.76778714	     -0.61733718	     74.12060682	     -2.80469495	      2.28494317	     64.04824649	      1.11785278	     18.82281760	    -15.53859515	     -7.49999987	     74.05864293	     -3.49182189	      4.69660851	     64.87888858	      1.13235022	     20.31722896	    -10.38603543	     -7.49999987	    -18.92094663	      2.27007640	     -2.20629998	      5.51274023	    -14.47921583	     12.94634228	    126.58291239	    102.24017701	      8.54557541	    -14.85906027	     13.42616339	    125.91511276	     97.75890170
     11.50000000	    -30.71067367	     -0.05880959	     -1.34117022	     -0.28762141	      0.76242309	     -0.61744694	     75.46140218	     -2.91339620	      2.29937192	     65.04289727	      1.13521271	     19.06728814	    -15.39854970	     -7.49999987	     75.39671864	     -3.46936636	      4.66930615	     65.78548489	      1.14817331	     20.55556600	    -10.03952810	     -7.49999987	    -19.00849433	      2.29083327	     -2.18363469	      6.19003992	    -14.55888708	     13.22788491	    126.57330487	    102.26057186	      9.57687179	    -14.83647309	     13.90272185	    125.79568062	     97.83968852
     11.51000000	    -30.85372334	     -0.06803405	     -1.21957291	     -0.29134726	      0.75794640	     -0.61751154	     76.36712062	     -3.00433883	      2.36192332	     65.82380369	      1.14884210	     19.15626523	    -15.44514241	     -7.49999987	     76.30827597	     -3.41725683	      4.67640937	     66.50430108	      1.16071902	     20.63722118	    -10.02361970	     -7.49999987	    -19.54830230	      2.34323777	     -2.20802263	      7.12032536	    -14.45020222	     13.24916169	    126.53313686	    102.25689181	     10.70062467	    -14.66966293	     13.91212313	    125.80747500	     97.85065088
     11.52000000	    -31.33155385	      0.02482080	     -0.99600269	     -0.29497557	      0.75248465	     -0.61773962	     77.82095608	     -3.34202971	      2.31355564	     67.01452210	      1.16962406	     19.39201704	    -15.25980095	     -7.49999987	     77.69525962	     -3.24898657	      4.57525677	     67.47284179	      1.17762324	     20.80906161	     -9.65810150	     -7.49999987	    -19.52263255	      2.29607172	     -2.29456884	      7.63513206	    -14.65345458	     13.77654381	    126.46666353	    102.27016005	     11.54851543	    -14.71777109	     14.59102244	    125.62167390	     97.91406656
     11.53000000	    -31.53806488	      0.04797537	     -0.90058620	     -0.29860565	      0.74773340	     -0.61784390	     78.88035252	     -3.49114992	      2.31146893	     67.96030776	      1.18613113	     19.50576968	    -15.17835944	     -7.49999987	     78.75676305	     -3.24766300	      4.47230129	     68.36422280	      1.19318078	     20.88857938	     -9.51231443	     -7.49999987	    -19.87483570	      2.29268364	     -2.29932527	      8.38874794	    -14.66263577	     13.91927517	    126.38582468	    102.26574706	     12.47628547	    -14.54455590	     14.77966312	    125.54241924	     97.93462574
     11.54000000	    -31.84790525	      0.04614280	     -0.86942007	     -0.30232291	      0.74288942	     -0.61768361	     80.01687557	     -3.52941705	      2.31629763	     68.82319793	      1.20119141	     19.61397496	    -15.06630871	     -7.49999987	     79.93428164	     -3.36071753	      4.35039343	     69.22909796	      1.20827570	     20.95793854	     -9.31007578	     -7.49999987	    -20.07599306	      2.29035259	     -2.23358443	      9.13530974	    -14.67033892	     14.11462500	    126.33542184	    102.27320302	     13.34034254	    -14.39713507	     15.02497849	    125.44913355	     97.95603667
     11.55000000	    -32.18431191	     -0.08220374	     -1.15970283	     -0.30615328	      0.73827877	     -0.61662775	     81.10839417	     -3.13474110	      2.28798685	     69.47977057	      1.21265076	     19.67929748	    -14.89589199	     -7.49999987	     81.13786439	     -3.92718460	      4.26322385	     70.11295934	      1.22370199	     21.06578879	     -8.90040091	     -7.49999987	    -20.27097768	      2.28588003	     -1.85061614	      9.88106633	    -14.66841667	     14.39909382	    126.22717735	    102.31541914	     14.19856525	    -14.33809875	     15.35775545	    125.34093535	     97.98965725
     11.56000000	    -32.38288855	     -0.28925097	     -1.52821823	     -0.31002676	      0.73416910	     -0.61523969	     81.97762683	     -2.60091633	      2.17711539	     70.01133280	      1.22192827	     19.63719100	    -14.84195162	     -7.49999987	     82.18900580	     -4.60272428	      4.31056495	     70.94891382	      1.23829215	     21.38414179	     -8.14854212	     -7.49999987	    -20.67703707	      2.30045765	     -1.30122507	     10.66507711	    -14.64843131	     14.63379946	    126.14875140	    102.45501572	     15.18640533	    -14.25507514	     15.72118188	    125.19110833	     98.04090136
     11.57000000	    -32.55023277	     -0.26525479	     -1.47285519	     -0.31360474	      0.72975494	     -0.61519791	     82.93709706	     -2.73147270	      2.11426918	     70.80863099	      1.23584375	     19.64934053	    -14.84881562	     -7.49999987	     83.14838369	     -4.60767961	      4.29084422	     71.72418872	      1.25182325	     21.47642158	     -7.96631810	     -7.49999987	    -21.03464633	      2.27590775	     -1.29692103	     11.36362964	    -14.60780155	     14.76342653	    126.09885106	    102.51980103	     15.98412247	    -14.08345898	     15.89942317	    125.12727373	     98.06203876
     11.58000000	    -32.86090348	     -0.16290826	     -1.00628120	     -0.31695359	      0.72475151	     -0.61629626	     84.09818712	     -3.43635214	      2.01241569	     71.78105482	      1.25281575	     19.75164540	    -14.76708462	     -7.49999987	     84.25236533	     -4.05929769	      4.28735049	     72.44372771	      1.26438157	     21.52208791	     -7.79468365	     -7.49999987	    -21.10565019	      2.35412782	     -1.62933916	     11.93111225	    -14.66745657	     14.95445098	    126.09542392	    102.59079636	     16.66418273	    -13.85937320	     16.18530115	    125.00397929	     98.08472847
     11.59000000	    -33.13322041	     -0.13147492	     -0.69511088	     -0.32026104	      0.71982954	     -0.61680874	     85.19994248	     -3.91869836	      1.87325208	     72.70875125	      1.26900710	     19.88896837	    -14.58977319	     -7.49999987	     85.32688222	     -3.76372352	      4.27913743	     73.18748760	      1.27736263	     21.51774782	     -7.66290044	     -7.49999987	    -21.19304263	      2.42261946	     -1.87141598	     12.46792516	    -14.68318078	     15.17406377	    126.01153047	    102.64344491	     17.28629274	    -13.69075448	     16.44628493	    124.89187047	     98.10059537
     11.60000000	    -33.41751481	     -0.14670517	     -0.68176501	     -0.32378701	      0.71519163	     -0.61653344	     86.24540040	     -4.00239044	      1.83086900	     73.45867775	      1.28209579	     20.42265792	    -13.72458003	     -7.49999987	     86.39566659	     -3.85275873	      4.28411096	     73.90153129	      1.28982504	     21.62270280	     -7.20459179	     -7.49999987	    -21.28989628	      2.40174251	     -1.90574980	     13.15519416	    -14.63062504	     15.55966241	    125.80323888	    102.87983691	     17.87520392	    -13.63147485	     16.68419858	    124.80779231	     98.14015039
